<svg xmlns="http://www.w3.org/2000/svg" width="1280" height="760" viewBox="0 0 1280 760" role="img" aria-label="业务数据源调试台验证路由示意图">
  <defs>
    <filter id="shadow" x="-10%" y="-10%" width="120%" height="130%">
      <feDropShadow dx="0" dy="8" stdDeviation="10" flood-color="#0f172a" flood-opacity="0.12"/>
    </filter>
  </defs>
  <rect width="1280" height="760" fill="#f5f7fb"/>
  <rect x="42" y="34" width="1196" height="92" rx="10" fill="#ffffff" stroke="#e2e8f0" filter="url(#shadow)"/>
  <text x="74" y="70" fill="#64748b" font-size="12" font-family="Arial, 'PingFang SC', sans-serif" font-weight="700">TENANT BUSINESS DATASOURCE</text>
  <text x="74" y="102" fill="#111827" font-size="24" font-family="Arial, 'PingFang SC', sans-serif" font-weight="700">业务数据源调试</text>
  <rect x="1006" y="60" width="90" height="34" rx="6" fill="#f8fafc" stroke="#cbd5e1"/>
  <text x="1024" y="82" fill="#475569" font-size="14" font-family="Arial, 'PingFang SC', sans-serif">刷新租户</text>
  <rect x="1110" y="60" width="92" height="34" rx="6" fill="#2563eb"/>
  <text x="1128" y="82" fill="#ffffff" font-size="14" font-family="Arial, 'PingFang SC', sans-serif">检测路由</text>

  <rect x="42" y="150" width="386" height="348" rx="10" fill="#ffffff" stroke="#e2e8f0" filter="url(#shadow)"/>
  <text x="70" y="184" fill="#64748b" font-size="12" font-family="Arial, 'PingFang SC', sans-serif" font-weight="700">CONTEXT</text>
  <text x="70" y="212" fill="#111827" font-size="18" font-family="Arial, 'PingFang SC', sans-serif" font-weight="700">调试上下文</text>
  <rect x="302" y="178" width="92" height="28" rx="14" fill="#dcfce7"/>
  <text x="316" y="197" fill="#15803d" font-size="13" font-family="Arial, 'PingFang SC', sans-serif">tenant ds</text>
  <text x="70" y="256" fill="#475569" font-size="14" font-family="Arial, 'PingFang SC', sans-serif">租户</text>
  <rect x="70" y="268" width="320" height="38" rx="6" fill="#f8fafc" stroke="#2563eb"/>
  <text x="88" y="292" fill="#0f172a" font-size="14" font-family="Arial, 'PingFang SC', sans-serif">租户 A (tenant_biz_demo)</text>
  <text x="70" y="336" fill="#475569" font-size="14" font-family="Arial, 'PingFang SC', sans-serif">写入标题</text>
  <rect x="70" y="348" width="320" height="38" rx="6" fill="#ffffff" stroke="#cbd5e1"/>
  <text x="88" y="372" fill="#0f172a" font-size="14" font-family="Arial, 'PingFang SC', sans-serif">路由验证 2026-06-22 16:40:00</text>
  <rect x="70" y="414" width="134" height="36" rx="6" fill="#2563eb"/>
  <text x="88" y="437" fill="#ffffff" font-size="14" font-family="Arial, 'PingFang SC', sans-serif">写入测试记录</text>
  <rect x="216" y="414" width="104" height="36" rx="6" fill="#f8fafc" stroke="#cbd5e1"/>
  <text x="238" y="437" fill="#475569" font-size="14" font-family="Arial, 'PingFang SC', sans-serif">读取记录</text>

  <rect x="454" y="150" width="784" height="348" rx="10" fill="#ffffff" stroke="#e2e8f0" filter="url(#shadow)"/>
  <text x="482" y="184" fill="#64748b" font-size="12" font-family="Arial, 'PingFang SC', sans-serif" font-weight="700">RUNTIME</text>
  <text x="482" y="212" fill="#111827" font-size="18" font-family="Arial, 'PingFang SC', sans-serif" font-weight="700">路由结果</text>
  <rect x="1116" y="178" width="82" height="28" rx="14" fill="#dcfce7"/>
  <text x="1130" y="197" fill="#15803d" font-size="13" font-family="Arial, 'PingFang SC', sans-serif">tenant ds</text>

  <g>
    <rect x="482" y="242" width="162" height="86" rx="8" fill="#f8fafc" stroke="#e2e8f0"/>
    <text x="502" y="270" fill="#64748b" font-size="13" font-family="Arial, 'PingFang SC', sans-serif">当前数据库</text>
    <text x="502" y="302" fill="#111827" font-size="18" font-family="Arial, 'PingFang SC', sans-serif" font-weight="700">forge_tenant_a</text>
    <rect x="666" y="242" width="162" height="86" rx="8" fill="#f8fafc" stroke="#e2e8f0"/>
    <text x="686" y="270" fill="#64748b" font-size="13" font-family="Arial, 'PingFang SC', sans-serif">线程 dsKey</text>
    <text x="686" y="302" fill="#111827" font-size="18" font-family="Arial, 'PingFang SC', sans-serif" font-weight="700">tenant_biz_demo</text>
    <rect x="850" y="242" width="162" height="86" rx="8" fill="#f8fafc" stroke="#e2e8f0"/>
    <text x="870" y="270" fill="#64748b" font-size="13" font-family="Arial, 'PingFang SC', sans-serif">租户配置</text>
    <text x="870" y="302" fill="#111827" font-size="18" font-family="Arial, 'PingFang SC', sans-serif" font-weight="700">tenant_biz_demo</text>
    <rect x="1034" y="242" width="162" height="86" rx="8" fill="#f8fafc" stroke="#e2e8f0"/>
    <text x="1054" y="270" fill="#64748b" font-size="13" font-family="Arial, 'PingFang SC', sans-serif">路由状态</text>
    <text x="1054" y="302" fill="#111827" font-size="18" font-family="Arial, 'PingFang SC', sans-serif" font-weight="700">业务库</text>
  </g>

  <rect x="482" y="360" width="714" height="96" rx="8" fill="#ffffff" stroke="#e2e8f0"/>
  <text x="508" y="392" fill="#475569" font-size="14" font-family="Arial, 'PingFang SC', sans-serif">解析 dsKey</text>
  <text x="632" y="392" fill="#0f172a" font-size="14" font-family="Arial, 'PingFang SC', sans-serif">tenant_biz_demo</text>
  <text x="508" y="428" fill="#475569" font-size="14" font-family="Arial, 'PingFang SC', sans-serif">允许写入</text>
  <rect x="632" y="408" width="42" height="26" rx="13" fill="#dcfce7"/>
  <text x="646" y="426" fill="#15803d" font-size="13" font-family="Arial, 'PingFang SC', sans-serif">是</text>
  <text x="792" y="392" fill="#475569" font-size="14" font-family="Arial, 'PingFang SC', sans-serif">数据源编码</text>
  <text x="930" y="392" fill="#0f172a" font-size="14" font-family="Arial, 'PingFang SC', sans-serif">tenant_biz_demo</text>

  <rect x="42" y="530" width="1196" height="174" rx="10" fill="#ffffff" stroke="#e2e8f0" filter="url(#shadow)"/>
  <text x="70" y="564" fill="#64748b" font-size="12" font-family="Arial, 'PingFang SC', sans-serif" font-weight="700">RECORDS</text>
  <text x="70" y="592" fill="#111827" font-size="18" font-family="Arial, 'PingFang SC', sans-serif" font-weight="700">演示表记录</text>
  <rect x="70" y="618" width="1116" height="44" fill="#f1f5f9"/>
  <text x="94" y="646" fill="#475569" font-size="14" font-family="Arial, 'PingFang SC', sans-serif">ID</text>
  <text x="260" y="646" fill="#475569" font-size="14" font-family="Arial, 'PingFang SC', sans-serif">租户ID</text>
  <text x="380" y="646" fill="#475569" font-size="14" font-family="Arial, 'PingFang SC', sans-serif">标题</text>
  <text x="790" y="646" fill="#475569" font-size="14" font-family="Arial, 'PingFang SC', sans-serif">routeKey</text>
  <text x="94" y="686" fill="#0f172a" font-size="14" font-family="Arial, 'PingFang SC', sans-serif">184932000001</text>
  <text x="270" y="686" fill="#0f172a" font-size="14" font-family="Arial, 'PingFang SC', sans-serif">1</text>
  <text x="380" y="686" fill="#0f172a" font-size="14" font-family="Arial, 'PingFang SC', sans-serif">路由验证 2026-06-22 16:40:00</text>
  <rect x="790" y="668" width="130" height="26" rx="13" fill="#dcfce7"/>
  <text x="804" y="686" fill="#15803d" font-size="13" font-family="Arial, 'PingFang SC', sans-serif">tenant_biz_demo</text>
</svg>
